<?xml version="1.0" encoding="utf-8"?>
<!-- Generator: Adobe Illustrator 27.5.0, SVG Export Plug-In . SVG Version: 6.00 Build 0)  -->
<svg version="1.1" id="Layer_1" xmlns="http://www.w3.org/2000/svg" xmlns:xlink="http://www.w3.org/1999/xlink" x="0px" y="0px"
	 viewBox="0 0 3530 2000" style="enable-background:new 0 0 3530 2000;" xml:space="preserve">
<rect x="0.001" y="0.001" style="fill:#FFFFFF;" width="3530" height="2000"/>
<g>
	<g>
		<g>
			<path style="fill:#96D9C9;" d="M1993.605,1009.698c134.324-37.72,232.59-135.083,291.373-210.119
				c63.814-81.458,96.184-154.938,96.505-155.67l5.698,2.228c-0.321,0.738-32.918,74.765-97.142,156.775
				c-59.348,75.784-158.637,174.138-294.624,212.326L1993.605,1009.698z"/>
		</g>
		<g>
			<path style="fill:#96D9C9;" d="M2377.979,616.709c-13.202,19.436-16.66,41.91-11.427,61.664
				c21.222-3.785,41.429-16.147,54.63-35.584c13.203-19.437,16.66-41.909,11.428-61.664
				C2411.387,584.91,2391.182,597.273,2377.979,616.709z"/>
		</g>
		<g>
			<path style="fill:#96D9C9;" d="M2386.274,692.998c-23.38,7.132-41.196,22.383-50.401,40.697
				c19.109,9.676,43.197,12.145,66.576,5.013c23.38-7.132,41.196-22.383,50.402-40.697
				C2433.74,688.334,2409.654,685.866,2386.274,692.998z"/>
		</g>
		<g>
			<path style="fill:#96D9C9;" d="M2370.209,761.841c-24.365-3.659-47.688,2.257-64.789,14.567
				c12.408,16.742,32.757,29.217,57.122,32.877c24.365,3.659,47.687-2.258,64.788-14.568
				C2414.924,777.975,2394.574,765.5,2370.209,761.841z"/>
		</g>
		<g>
			<path style="fill:#96D9C9;" d="M2319.725,826.629c-24.365-3.659-47.687,2.257-64.789,14.568
				c12.408,16.742,32.757,29.217,57.123,32.876c24.364,3.659,47.686-2.257,64.787-14.568
				C2364.439,842.763,2344.09,830.289,2319.725,826.629z"/>
		</g>
		<g>
			<path style="fill:#96D9C9;" d="M2329.716,723.437c-0.062-20.99-8.866-40.229-22.726-53.617
				c-13.785,12.033-22.479,30.415-22.418,51.406c0.063,20.99,8.867,40.23,22.727,53.617
				C2321.082,762.81,2329.777,744.428,2329.716,723.437z"/>
		</g>
		<g>
			<path style="fill:#96D9C9;" d="M2277.035,790.482c0.29-20.988-8.192-40.372-21.825-53.989
				c-13.983,11.801-22.985,30.035-23.274,51.023c-0.289,20.989,8.192,40.372,21.826,53.99
				C2267.744,829.704,2276.746,811.47,2277.035,790.482z"/>
		</g>
		<g>
			<path style="fill:#96D9C9;" d="M2236.334,892.588c-9.094-4.65-19.377-5.127-28.256-2.115c2.135,8.643,8.148,16.5,17.242,21.15
				c9.093,4.65,19.377,5.127,28.256,2.116C2251.441,905.095,2245.428,897.238,2236.334,892.588z"/>
		</g>
	</g>
	<path style="fill:#3C8F7C;" d="M1813.458,1218.484c0,0,83.823-518.324,167.475-518.482c76.262-0.144-15.396,191.937-6.22,233.232
		c9.178,41.295,83.297-126.476,159.004-204.477c75.707-78.002,122.064-34.966,78.179,59.663
		c-42.437,91.504-196.167,198.724-161.753,207.9c34.412,9.177,227.375-118.292,256.457-71.314
		c35.656,57.6-261.596,159.272-231.771,170.743c29.824,11.47,171.428-42.455,171.428,3.429c0,45.883-195.672,57.349-190.583,77.188
		c8.24,32.125,188.526-35.359,198.126,9.213c9.819,45.588-224.229,34.285-218.057,69.942c3.547,20.491,226.207-5.558,234.256,22.613
		c18.353,64.235-484.07,98.649-484.07,98.649L1813.458,1218.484z"/>
	<path style="fill:#3C8F7C;" d="M1482.09,1309.824c0,0-165.33-145.129-186.931-134.211s-166.787-59.135-179.769-21.132
		c-15.917,46.596,203.785,87.938,185.537,99.981c-18.248,12.043-128.245-13.199-122.075,20.464s137.555,18.278,136.846,33.452
		c-1.148,24.571-129.856-3.015-130.234,30.854c-0.385,34.641,153.404-2.116,154.103,24.795
		c0.402,15.465-93.998,17.569-95.551,39.216c-3.542,49.36,305.556,37.419,305.556,37.419L1482.09,1309.824z"/>
	<g>
		<g>
			<path style="fill:#96D9C9;" d="M2041.42,1358.018c81.725,37.469,170.6,30.599,230.766,18.237
				c65.315-13.418,111.855-36.026,112.318-36.254l1.871,3.471c-0.466,0.229-47.344,23.012-113.092,36.531
				c-60.756,12.493-150.547,19.423-233.284-18.509L2041.42,1358.018z"/>
		</g>
		<g>
			<path style="fill:#96D9C9;" d="M2394.122,1325.176c-14.591,4.046-25.659,13.646-31.323,25.535
				c12.005,6.988,27.088,9.338,41.678,5.291c14.59-4.045,25.658-13.646,31.324-25.533
				C2423.795,1323.479,2408.713,1321.131,2394.122,1325.176z"/>
		</g>
		<g>
			<path style="fill:#96D9C9;" d="M2366.392,1366.119c-14.461-6.244-29.573-6.178-41.731-1.018
				c5.355,12.722,16.161,23.977,30.622,30.221c14.461,6.242,29.573,6.177,41.731,1.016
				C2391.658,1383.617,2380.854,1372.361,2366.392,1366.119z"/>
		</g>
		<g>
			<path style="fill:#96D9C9;" d="M2329.797,1393.246c-10.446-11.956-24.372-18.771-37.907-19.854
				c-0.884,13.398,3.913,28.012,14.36,39.969c10.446,11.956,24.371,18.771,37.906,19.853
				C2345.04,1419.816,2340.242,1405.202,2329.797,1393.246z"/>
		</g>
		<g>
			<path style="fill:#96D9C9;" d="M2272.575,1397.778c-8.29-9.462-20.279-14.037-32.503-13.6c-2.182,11.897,0.689,24.28,8.98,33.742
				c8.29,9.462,20.279,14.037,32.502,13.6C2283.736,1419.624,2280.865,1407.24,2272.575,1397.778z"/>
		</g>
		<g>
			<path style="fill:#96D9C9;" d="M2330.746,1341.276c3.533-13.056,1.334-26.512-5.002-37.19
				c-10.615,5.134-19.146,15.079-22.68,28.136c-3.532,13.057-1.333,26.513,5.004,37.19
				C2318.682,1364.278,2327.213,1354.333,2330.746,1341.276z"/>
		</g>
		<g>
			<path style="fill:#96D9C9;" d="M2292.26,1349.894c3.533-13.056,1.334-26.512-5.002-37.19
				c-10.614,5.135-19.146,15.08-22.679,28.137s-1.333,26.512,5.003,37.19C2280.196,1372.896,2288.728,1362.95,2292.26,1349.894z"/>
		</g>
		<g>
			<path style="fill:#96D9C9;" d="M2209.508,1401.674c-2.529-6.076-7.384-10.599-13.002-12.82
				c-2.555,5.137-2.875,11.505-0.346,17.581c2.529,6.075,7.383,10.598,13,12.819
				C2211.717,1414.117,2212.037,1407.75,2209.508,1401.674z"/>
		</g>
	</g>
	<g>
		<g>
			<g>
				<path style="fill:#96D9C9;" d="M1522.462,1183.795l-6.189-0.373c8.914-148.09-51.2-287.429-103.199-378.244
					c-56.431-98.553-115.757-162.833-116.35-163.471l4.541-4.224c0.597,0.642,60.331,65.348,117.114,164.48
					C1470.835,893.542,1531.472,1034.125,1522.462,1183.795z"/>
			</g>
			<g>
				<path style="fill:#96D9C9;" d="M1269.845,633.222c14.137,21.531,34.431,34.892,55.035,38.558
					c3.483-22.411-1.561-47.64-15.698-69.171c-14.137-21.53-34.43-34.892-55.035-38.558
					C1250.664,586.463,1255.708,611.691,1269.845,633.222z"/>
			</g>
			<g>
				<path style="fill:#96D9C9;" d="M1345.433,659.013c-1.01,26.005,7.59,50.184,21.992,67.311
					c15.625-14.367,26.034-36.797,27.043-62.803c1.01-26.005-7.59-50.183-21.992-67.311
					C1356.851,610.577,1346.442,633.008,1345.433,659.013z"/>
			</g>
			<g>
				<path style="fill:#96D9C9;" d="M1405.768,705.29c-11.639,22.174-13.789,47.582-7.757,69.755
					c20.127-4.681,38.837-19.015,50.477-41.188c11.639-22.174,13.789-47.582,7.757-69.755
					C1436.117,668.783,1417.407,683.117,1405.768,705.29z"/>
			</g>
			<g>
				<path style="fill:#96D9C9;" d="M1447.218,819.044c-5.574,8.924-7.273,19.503-5.444,28.982c8.58-1.328,16.87-6.746,22.443-15.67
					c5.574-8.924,7.274-19.502,5.444-28.982C1461.081,804.703,1452.791,810.121,1447.218,819.044z"/>
			</g>
			<g>
				<path style="fill:#96D9C9;" d="M1465.103,859.88c-5.574,8.924-7.273,19.502-5.443,28.981c8.58-1.328,16.87-6.745,22.443-15.669
					c5.574-8.924,7.273-19.502,5.443-28.982C1478.966,845.538,1470.676,850.956,1465.103,859.88z"/>
			</g>
			<g>
				<path style="fill:#96D9C9;" d="M1329.094,727.415c-21.117,0.282-39.593,9.927-51.673,24.936
					c13.495,14.667,32.866,23.808,53.983,23.526c21.117-0.282,39.593-9.927,51.672-24.936
					C1369.582,736.274,1350.21,727.134,1329.094,727.415z"/>
			</g>
			<g>
				<path style="fill:#96D9C9;" d="M1363.375,785.144c-21.117,0.282-39.593,9.927-51.672,24.935
					c13.494,14.667,32.866,23.808,53.982,23.526c21.117-0.281,39.593-9.927,51.673-24.935
					C1403.862,794.003,1384.491,784.862,1363.375,785.144z"/>
			</g>
			<g>
				<path style="fill:#96D9C9;" d="M1420.109,863.808c-13.744,0.183-25.77,6.461-33.632,16.229
					c8.783,9.546,21.392,15.497,35.136,15.313c13.744-0.184,25.77-6.461,33.632-16.229
					C1446.461,869.574,1433.853,863.625,1420.109,863.808z"/>
			</g>
		</g>
	</g>
	<g>
		<g>
			<path style="fill:#50BFA5;" d="M1668.574,1424.885c0,0-158.287-372.688-177.248-457.258
				c-18.961-84.569,58.303-31.325,58.303-31.325s-89.276-168.777-55.06-213.358c34.216-44.581,83.793-0.371,83.793-0.371
				s1.169-186.164,42.387-192.339c76.771-11.503,87.872,191.297,87.872,191.297s9.873-87.813,53.655-70.62
				c66.028,25.928-3.401,209.255-3.401,209.255s79.017-11.635,111.382,24.532C1928.328,949.591,1668.574,1424.885,1668.574,1424.885
				z"/>
		</g>
	</g>
	<g>
		<g>
			<path style="fill:#50BFA5;" d="M1718.85,1395.505c0,0-304.088-50.851-370.232-104.731s-0.678-78.176-0.678-78.176
				s-152.76-78.312-150.99-131.559c1.769-53.246,77.657-26.177,77.657-26.177s-128.714-146.771-98.242-174.646
				c56.758-51.919,205.56,100.655,205.56,100.655s-44.184-72.56,2.349-84.042c70.176-17.317,121.967,161.597,121.967,161.597
				s-13.159-70.656,35.23-61.244C1628.291,1014.07,1718.85,1395.505,1718.85,1395.505z"/>
		</g>
		<path style="fill:#3C8F7C;" d="M1541.472,997.183c-48.284-9.939-35.23,61.244-35.23,61.244s-51.791-178.914-121.966-161.597
			c-46.533,11.482-2.35,84.042-2.35,84.042s-148.802-152.574-205.56-100.655l541.458,515.375
			C1708.185,1346.367,1601.685,1009.577,1541.472,997.183z"/>
	</g>
	<g>
		<path style="fill:#50BFA5;" d="M1807.581,1434.238c0,0,109.476-111.421,164.626-123.042c55.148-11.62,45.244,27.626,45.244,27.626
			s109.389-95.738,134.756-72.562s-2.054,45.571-2.054,45.571s91.142-16.186,104.202,13.72
			c20.067,45.953-129.828,71.026-129.828,71.026s62.819,4.328,48.263,33.153C2150.838,1473.202,1807.581,1434.238,1807.581,1434.238
			z"/>
		<path style="fill:#96D9C9;" d="M2254.355,1325.552c-13.061-29.905-104.202-13.721-104.202-13.721s27.422-22.394,2.054-45.57
			c-25.367-23.177-131.359,59.546-131.359,59.546s24.98-47.794-30.168-36.174c-55.149,11.621-183.099,144.605-183.099,144.605
			L2254.355,1325.552z"/>
	</g>
	<path style="fill:#F7A491;" d="M1689.483,858.953c-41.418,19.371-42.098,262.205-36.363,280.555
		c1.434,4.588,58.435,4.268,63.381,4.913l-19.626-85.131c0,0,1.854-56.729,4.843-111.129
		C1704.631,895.13,1699.347,854.34,1689.483,858.953z"/>
	<g>
		<path style="fill:#184655;" d="M1129.914,1446.64L1129.914,1446.64c0,4.131,3.691,7.479,8.246,7.479h1251.396
			c4.554,0,8.245-3.348,8.245-7.479l0,0c0-4.13-3.691-7.479-8.245-7.479H1138.159
			C1133.605,1439.16,1129.914,1442.51,1129.914,1446.64z"/>
	</g>
	<g>
		<path style="fill:#13375B;" d="M1891.94,719.437c-3.819-34.913-7.84-69.955-36.782-95.544
			c-23.421-20.709-53.199-24.217-82.645-13.138c-83.429,31.392-40.441,105.486-146.823,180.191
			c-33.056,23.213-62.205,35.602-87.091,66.859c-34.834,43.752-22.764,93.146,8.984,128.283
			c151.909,168.121,315.301-52.198,327.477-106.701C1884.117,838.841,1894.399,741.911,1891.94,719.437z"/>
		<path style="fill:#B75742;" d="M1704.267,1002.579c-0.352,4.366-4.458,18.474-4.84,22.044c-18.611-1.881-42.82-1.276-61.171,0.513
			c-6.171-64.521,26.25-179.31,70.217-177.016C1719.146,848.677,1708.702,947.371,1704.267,1002.579z"/>
		<path style="fill:#F47458;" d="M1901.997,1215.204c-36.696,19.499-180.908-0.437-180.908-0.437
			c-3.502-36.703-15.53-130.061-23.704-209.002c4.435-55.208,17.784-119.688,11.183-157.646c-0.096-0.549,56.947-4.519,56.947-4.519
			l59.185,1.46c0,0,51.486,4.143,67.855,14.873c1.137,0.745,11.07,88.469,2.561,159.146
			C1882.43,1124.539,1901.997,1215.204,1901.997,1215.204z"/>
		<path style="fill:#355389;" d="M1719.285,1197.12l-129.245,110.983c0,0,254.614,133.043,342.927,107.811l24.085-120.426
			l-58.065-97.06L1719.285,1197.12z"/>
		<path style="fill:#13375B;" d="M1702.437,1343.658c0,0-97.487-14.91-155.98,32.113c-58.492,47.023-96.341,141.071-66.521,155.98
			c29.819,14.91,116.984-2.294,185.799-27.525C1734.551,1478.994,1758.636,1357.422,1702.437,1343.658z"/>
		<path style="fill:#F48C7F;" d="M1484.523,1441.146c-8.122,17.544-0.936,34.346,12.524,43.542
			c16.73,11.431,246.981,45.114,325.74,55.819c61.41,8.347,153.763,27.945,178.994,32.533c25.232,4.588,114.121,6.209,115.838,3.44
			c4.71-7.588-5.734-21.792-24.085-26.379s-30.966-1.146-66.521-25.232c-35.555-24.085-49.317-4.587-58.493,1.147
			c-9.175,5.734-411.741-129.602-411.741-129.602S1502.667,1401.953,1484.523,1441.146z"/>
		<path style="fill:#355389;" d="M1708.172,1218.645c0,0-178.177,83.543-215.712,107.762c-70.44,45.45-30.317,176.229-20.348,196.93
			c0,0,20.441-116.598,84.668-126.92l11.469-55.052L1708.172,1218.645z"/>
		<path style="fill:#466EB6;" d="M1887.09,1240.436c0,0-251.173-67.668-345.22,19.498c0,0-44.058,40.475-28,88.647
			c9.096,27.289,42.91,47.835,42.91,47.835s87.166-74.549,122.72-61.934c35.554,12.616,173.56,109.935,213.326,105.517
			C1954.758,1433.117,2027.014,1290.9,1887.09,1240.436z"/>
		<path style="fill:#F7A491;" d="M1729.5,1352.405c-26.705-13.444-90.143-43.154-132.579-30.538
			c-42.436,12.615-59.219,46.921-40.142,74.549c11.189,16.205,381.922,127.308,399.125,137.63
			c17.204,10.322,88.313,25.231,110.104,25.231s61.933,8.029,65.374,2.295c3.44-5.735-16.057-25.232-40.143-29.82
			c-24.084-4.588-57.345-36.701-71.108-48.171c-13.763-11.469-29.819-10.321-43.582-5.733
			C1962.787,1482.435,1791.371,1383.55,1729.5,1352.405z"/>
		<path style="fill:#F47458;" d="M1898.486,998.373c0,35.051-34.188,44.35-98.411,44.35c-64.222,0-116.285-28.414-116.285-63.466
			c0-35.051,42.659-84.366,106.881-84.366S1898.486,963.322,1898.486,998.373z"/>
		<path style="fill:#F7A491;" d="M1779.342,756.571c0,0-1.244,8.89-3.161,21.151c-3.509,22.438-5.296,59.252-9.8,70.441
			c-3.964,9.85-48.849,69.273-58.566,113.672c-7.352,33.589,10.521,54.704,26.736,59.541c12.997,3.876,49.535,5.374,63.08-19.497
			c25.693-47.182,29.746-135.872,30.769-147.984c1.013-12.001,4.249-53.086,6.397-80.459c1.162-14.813,2.006-25.61,2.006-25.61
			L1779.342,756.571z"/>
		<path style="fill:#F47458;" d="M1834.902,772.94c1.1-14.487,1.9-25.115,1.9-25.115l-57.461,8.746c0,0-1.449,8.364-3.051,20.192
			C1799.586,790.277,1820.533,786.013,1834.902,772.94z"/>
		<path style="fill:#F7A491;" d="M1797.361,626.521c0,0-22.65,5.104-36.634,26.446c-13.984,21.342-23.58,84.169,22.48,113.495
			c46.06,29.327,81.881-12.157,82.474-52.618C1866.275,673.383,1857.605,619.385,1797.361,626.521z"/>
		<path style="fill:#F7A491;" d="M1876.224,701.182c-3.929,9.763-11.726,15.822-17.413,13.533
			c-5.688-2.289-7.111-12.06-3.182-21.823c3.929-9.763,11.725-15.822,17.412-13.533
			C1878.729,681.648,1880.153,691.419,1876.224,701.182z"/>
		<path style="fill:#13375B;" d="M1804.156,625.195c0,0-28.876,64.766-54.243,70.55c-25.367,5.784-25.001,38.373-25.001,38.373
			s0.568-75.257,24.341-92.519S1804.156,625.195,1804.156,625.195z"/>
		<path style="fill:#F7A491;" d="M1759.992,709.207c3.34,10.518,0.283,20.874-6.826,23.132c-7.109,2.256-15.579-4.44-18.919-14.958
			c-3.339-10.518-0.283-20.874,6.826-23.131C1748.183,691.993,1756.653,698.689,1759.992,709.207z"/>
		<path style="fill:#F48C7F;" d="M1665.664,1063.646c30.599,15.317,30.165-6.014,60.3-18.186
			c32.706-13.207,29.205-58.02,7.742-69.263c-5.47-2.865-19.192-2.626-25.353-4.324c-27.978-7.712-47.198-28.85-59.122-5.032
			C1634.683,995.905,1635.065,1048.328,1665.664,1063.646z"/>
		<path style="fill:#466EB6;" d="M1686.34,1073.136c0.629,24.215,11.402,30.94,34.593,46.386
			c23.19,15.445,65.223,22.425,85.38,28.303c61.229,17.855,89.496,4.459,86.324-37.737c-3.172-42.197,2.565-43.195-42.248-63.479
			c-42.799-19.371-46.98-2.023-81.656-6.177C1734.058,1036.276,1685.539,1042.293,1686.34,1073.136z"/>
		<path style="fill:#F7CC7F;" d="M1704.718,1020.793c3.444-23.538-2.964-49.445-23.41-51.749
			c4.042-4.403-9.435-35.536-42.769-28.618c-24.442,5.073-45.435,24.651-47.169,45.635c-0.782,9.451-4.265,22.938-3.147,32.355
			c2.364,19.908,1.297,27.54,16.982,44.655c28.735,31.356,83.813,24.005,106.713,6.869
			C1731.631,1055.189,1729.062,1028.5,1704.718,1020.793z"/>
		<path style="fill:#F48C7F;" d="M1799.008,1045.691c12.276-18.236,22.197-38.628,21.015-47.476
			c-1.962-14.686-7.22-41.356-24.517-66.515c-0.469-0.683-4.772-7.103-5.346-10.377c-0.977-5.583-3.922-14.231-6.663-14.231
			c-1.857,0,1.894,7.686,1.475,12.973c-3.454-9.001-5.948-14.271-7.253-13.857c-1.929,0.612,0.654,7.833,2.221,14.643
			c-1.615-2.813-8.871-16.713-11.184-14.466c-1.98,1.929,2.381,11.02,5.681,17.139c-2.791-2.81-11.248-15.908-13.109-12.422
			c-0.798,1.496,2.027,7.683,3.518,9.906c3.567,5.321,6.493,11.997,5.671,13.539c-0.479,0.897-4.381-1.183-8.098-1.183
			c-2.822,0-4.016,1.762-1.826,4.68c1,1.334,6.428,2.079,12.475,4.218c4.428,1.564,7.954,2.016,7.738,5.226
			c-0.786,11.729,5.57,44.006,6.044,49.356c-2.519,1.509-12.756,6.99-24.401,14.235
			C1772.933,1024.557,1785.251,1036.272,1799.008,1045.691z"/>
		<path style="fill:#9BC1F9;" d="M1760.596,1008.568c-16.771,10.435-34.612,27.041-38.383,38.215
			c-11.141,33.009,27.686,43.293,47.665,31.307c8.32-4.992,19.457-18.026,29.131-32.398
			C1789.143,1028.959,1775.889,1018.254,1760.596,1008.568z"/>
		<path style="fill:#F48C7F;" d="M1877.662,1136.895c30.741-16.235,8.371-97.564,8.371-97.564s54.454,40.786,66.039,27.359
			c11.587-13.428,8.707-61.206,5.553-63.747c-3.152-2.54-4.369,4.578-4.369,4.578s-1.324-3.966-3.867-6.1s-4.166,5.595-4.166,5.595
			s1.115-7.627-4.375-5.998c-5.49,1.631-0.402,11.186-2.438,6.307c-2.036-4.881-10.781-6.301-7.828,3.155
			c2.953,9.455,8.686,27.316-2.095,23.661c-10.78-3.656-19.075-18.291-34.436-31.605c-8.704-7.544-30.036-16.7-43.869-11.321
			c-10.576,4.113-18.956,17.363-21.99,30.801c-7.002,31.016-2.183,77.65,10.823,98.831
			C1844.489,1129.761,1864.752,1143.713,1877.662,1136.895z"/>
		<path style="fill:#F7A491;" d="M1892.752,859.972c-4.411-2.492-29.278,216.823-31.564,237.076
			c-0.15-0.032-0.168-0.035-0.168-0.035s-50.845-3.92-100.424-12.744l-8.123,47.571c60.931,24.401,138.39,49.901,156.465,33.991
			C1954.012,1126.153,1951.63,893.234,1892.752,859.972z"/>
		<path style="fill:#B75742;" d="M1940.256,1073.292c3.718-52.515,0.244-117.686-14-162.686
			c-7.849-24.796-20.248-43.145-33.504-50.634c-3.523-1.991-22.461,137.689-30.152,204.234
			C1886.477,1065.513,1916.59,1069.521,1940.256,1073.292z"/>
		<path style="fill:#F48C7F;" d="M1900.582,1156.051c12.159-1.67,43.362-32.24,11.136-16.176
			c-32.226,16.063-74.722,4.284-66.374-2.719c8.35-7.002,25.271-11.82,19.116-16.058c-6.154-4.237-27.357,8.009-45.496,13.127
			c-3.298,0.931-15.249,11.831-24.724,9.686c-5.074-1.149-139.075-58.039-169.197-74.398c0,0,11.743,66.761,12.7,67.261
			c105.022,55.049,162.064,46.525,195.75,46.645s65.613-11.056,69.583-16.822c3.969-5.768-35.557,3.059-35.557,3.059
			s11.159-0.974,22.562-2.645c12.041-1.764,30.087-10.804,29.817-13.795c-0.264-2.913-17.851,4.446-29.827,5.891
			c-11.979,1.445-24.846,3.857-24.846,2.902C1865.225,1160.479,1888.422,1157.72,1900.582,1156.051z"/>
		<path style="fill:#F7A491;" d="M1607.921,1029.915c-9.329-7.975-24.304-55.179-5.866-24.249
			c18.438,30.93,60.562,43.979,57.32,33.575c-3.242-10.403-14.879-23.601-7.41-23.841c7.468-0.24,18.693,21.521,31.191,35.628
			c2.273,2.565,6.438,18.195,15.571,21.509c4.89,1.773,129.253,22.35,163.438,24.857c0,0-67.119,41.875-68.182,41.674
			c-14.914-2.827-26.471-8.132-38.741-11.088c-54.099-13.031-87.734-28.653-110.891-43.408c-28.41-18.1-49.237-44.754-49.463-51.752
			c-0.224-6.997,28.267,21.785,28.267,21.785s-8.864-6.849-17.556-14.415c-9.178-7.989-17.683-28.167-15.839-30.539
			c1.795-2.309,10.583,15.061,19.881,22.749s19.06,17.814,19.577,17.011C1630.045,1048.124,1617.251,1037.889,1607.921,1029.915z"/>
	</g>
	<path style="fill:#96D9C9;" d="M1987.908,537.982c0,0,13.296-5.799,27.136,2.786c12.34,7.654,14.384,23.342,6.861,35.47
		c-8.708,14.038-30.602,23.456-69.651,19.224c-21.141-33.103-22.43-56.903-13.723-70.94c7.523-12.127,22.486-17.266,34.826-9.612
		C1987.197,523.494,1987.908,537.982,1987.908,537.982z"/>
	<path style="fill:#96D9C9;" d="M1262.536,447.225c0,0-1.453-11.481,8.229-20.148c8.632-7.728,21.102-5.769,28.696,2.715
		c8.79,9.819,11.083,28.697-0.929,57.642c-30.092,8.749-48.602,4.389-57.393-5.43c-7.595-8.483-8.167-21.094,0.464-28.821
		C1251.285,444.515,1262.536,447.225,1262.536,447.225z"/>
	<path style="fill:#50BFA5;" d="M1299.461,429.791c-7.595-8.483-20.065-10.442-28.696-2.715c-9.682,8.667-8.229,20.148-8.229,20.148
		s35.892,40.21,35.996,40.208C1310.544,458.488,1308.251,439.61,1299.461,429.791z"/>
	<path style="fill:#50BFA5;" d="M1469.362,550.283c0,0,0.217-11.571,11.047-18.751c9.655-6.402,21.713-2.667,28.005,6.823
		c7.283,10.984,6.83,29.995-9.229,56.905c-31.039,4.319-48.728-2.663-56.011-13.647c-6.292-9.49-5.041-22.051,4.615-28.453
		C1458.619,545.979,1469.362,550.283,1469.362,550.283z"/>
	<path style="fill:#96D9C9;" d="M1508.414,538.354c-6.292-9.49-18.35-13.226-28.005-6.823c-10.83,7.181-11.047,18.751-11.047,18.751
		s29.822,44.966,29.823,44.977C1515.244,568.35,1515.697,549.338,1508.414,538.354z"/>
	<g>
		<path style="fill:#86B1F2;" d="M1807.994,490.516c0,0,6.121-9.635,18.93-10.126c11.418-0.437,19.658,8.898,20.087,20.121
			c0.497,12.991-9.642,28.771-36.979,43.197c-28.362-12.293-39.678-27.252-40.176-40.242c-0.43-11.223,7.071-21.161,18.49-21.598
			C1801.153,481.376,1807.994,490.516,1807.994,490.516z"/>
		<path style="fill:#9BC1F9;" d="M1847.011,500.511c-0.429-11.223-8.669-20.558-20.087-20.121
			c-12.809,0.491-18.93,10.126-18.93,10.126s2.035,53.201,2.037,53.192C1837.369,529.282,1847.508,513.502,1847.011,500.511z"/>
	</g>
	<g>
		<path style="fill:#86B1F2;" d="M1163.688,743.007c0,0-4.517-12.737,4.371-25.036c7.924-10.965,22.639-11.835,33.416-4.048
			c12.475,9.014,19.79,29.981,13.292,65.996c-32.154,17.474-54.357,17.11-66.832,8.095c-10.777-7.788-14.57-22.032-6.646-32.998
			C1150.176,742.717,1163.688,743.007,1163.688,743.007z"/>
		<path style="fill:#9BC1F9;" d="M1201.475,713.923c-10.777-7.788-25.492-6.918-33.416,4.048
			c-8.888,12.299-4.371,25.036-4.371,25.036s51.083,36.906,51.08,36.912C1221.265,743.904,1213.949,722.937,1201.475,713.923z"/>
	</g>
	<path style="fill:#86B1F2;" d="M2296.35,1071.53c0,0,8.115-2.821,15.104,2.817c6.23,5.026,5.824,14.317,0.352,21.102
		c-6.336,7.853-19.686,12.422-41.398,8.236c-8.681-20.336-7.037-34.35-0.701-42.203c5.473-6.784,14.467-9.145,20.698-4.118
		C2297.392,1063.003,2296.35,1071.53,2296.35,1071.53z"/>
	<path style="fill:#86B1F2;" d="M1089.601,1099.119c0,0-5.265-6.789-2.154-15.213c2.774-7.51,11.707-10.092,19.884-7.072
		c9.465,3.496,18.059,14.688,21.027,36.599c-16.498,14.722-30.303,17.641-39.769,14.146c-8.177-3.021-13.287-10.789-10.514-18.3
		C1081.188,1100.855,1089.601,1099.119,1089.601,1099.119z"/>
	<path style="fill:#86B1F2;" d="M2394.354,1218.418c0,0,8.114-2.822,15.104,2.816c6.229,5.027,5.824,14.317,0.35,21.102
		c-6.335,7.853-19.686,12.422-41.396,8.236c-8.682-20.336-7.038-34.35-0.703-42.203c5.475-6.783,14.469-9.145,20.699-4.118
		C2395.395,1209.89,2394.354,1218.418,2394.354,1218.418z"/>
	<path style="fill:#86B1F2;" d="M2424.524,1100.475c0,0,8.114-2.821,15.104,2.817c6.229,5.026,5.824,14.317,0.351,21.101
		c-6.336,7.854-19.686,12.422-41.396,8.237c-8.682-20.336-7.039-34.351-0.703-42.203c5.474-6.784,14.468-9.146,20.699-4.118
		C2425.566,1091.947,2424.524,1100.475,2424.524,1100.475z"/>
</g>
</svg>
