<?xml version="1.0" encoding="UTF-8"?>
<svg id="Layer_2" data-name="Layer 2" xmlns="http://www.w3.org/2000/svg" viewBox="0 0 408.49 71.06">
  <defs>
    <style>
      .cls-1 {
        fill: #262262;
      }

      .cls-2 {
        fill: #1c75bc;
      }
    </style>
  </defs>
  <g id="Layer_1-2" data-name="Layer 1">
    <g>
      <g>
        <path class="cls-2" d="m62.2,27.85c-6.14,0-9.21-4.22-9.21-12.66s3.07-13.01,9.21-13.01,9.21,4.34,9.21,13.01-3.07,12.66-9.21,12.66Zm0-3.23c3.68,0,5.52-3.14,5.52-9.42s-1.84-9.77-5.52-9.77-5.52,3.26-5.52,9.77,1.84,9.42,5.52,9.42Z"/>
        <path class="cls-2" d="m75.2,27.5V2.54h3.52v24.96h-3.52Zm.74-10.76v-3.34h14.78v3.34h-14.78Zm11.92,10.76V2.54h3.52v24.96h-3.52Z"/>
        <path class="cls-2" d="m94.63,27.5l7.21-24.96h5.1l7.21,24.96h-3.69l-5.91-21.94h-.32l-5.91,21.94h-3.69Zm3.34-6.08v-3.34h12.66v3.34h-12.66Z"/>
        <path class="cls-2" d="m117.39,27.5V2.54h3.52v24.96h-3.52Zm3.27-9.49v-3.34h5.31c1.39,0,2.48-.37,3.26-1.11s1.17-1.78,1.17-3.11c0-1.46-.39-2.59-1.17-3.38s-1.87-1.19-3.26-1.19h-5.24l-.42-3.34h5.66c2.59,0,4.59.66,6,1.97s2.12,3.18,2.12,5.59-.71,4.45-2.12,5.84-3.41,2.07-6,2.07h-5.31Zm10.12,9.49l-5.59-11.74h3.87l5.94,11.74h-4.22Z"/>
        <path class="cls-2" d="m138.49,27.5V2.54h3.52v24.96h-3.52Zm3.27-9.49v-3.34h5.31c1.39,0,2.48-.37,3.26-1.11s1.17-1.78,1.17-3.11c0-1.46-.39-2.59-1.17-3.38s-1.87-1.19-3.26-1.19h-5.24l-.42-3.34h5.66c2.59,0,4.59.66,6,1.97s2.12,3.18,2.12,5.59-.71,4.45-2.12,5.84-3.41,2.07-6,2.07h-5.31Zm10.12,9.49l-5.59-11.74h3.87l5.94,11.74h-4.22Z"/>
        <path class="cls-2" d="m157.91,27.5l7.21-24.96h5.1l7.21,24.96h-3.69l-5.91-21.94h-.32l-5.91,21.94h-3.69Zm3.34-6.08v-3.34h12.66v3.34h-12.66Z"/>
        <path class="cls-2" d="m180.46,27.5V2.54h3.38v24.96h-3.38Zm6.68-10.2l-2.85-10.34h-1.02V2.54h2.5l2.85,10.72h.14l.35,4.04h-1.97Zm1.02,0l.53-4.04h.21l2.85-10.72h2.5v4.43h-1.02l-2.85,10.34h-2.21Zm5.52,10.2V2.54h3.38v24.96h-3.38Z"/>
        <path class="cls-2" d="m209.78,27.85c-5.34,0-8.02-2.79-8.02-8.37V2.54h3.52v16.95c0,1.66.37,2.92,1.1,3.76s1.89,1.27,3.47,1.27c3.05,0,4.57-1.68,4.57-5.03V2.54h3.52v16.95c0,2.79-.69,4.88-2.07,6.28s-3.41,2.09-6.08,2.09Z"/>
        <path class="cls-2" d="m223,27.5V2.54h3.38v24.96h-3.38Zm11.46,0l-7.73-18.98h-1.62V2.54h2.32l7.73,18.98h.88v5.98h-1.58Zm1.05,0V2.54h3.38v24.96h-3.38Z"/>
        <path class="cls-2" d="m265.19,27.5V2.54h3.38v24.96h-3.38Zm11.46,0l-7.73-18.98h-1.62V2.54h2.32l7.73,18.98h.88v5.98h-1.58Zm1.05,0V2.54h3.38v24.96h-3.38Z"/>
        <path class="cls-2" d="m286.49,27.5V2.54h3.52v24.96h-3.52Zm0-21.62v-3.34h16.52v3.34h-16.52Zm0,10.79v-3.34h13.36v3.34h-13.36Zm0,10.83v-3.34h16.52v3.34h-16.52Z"/>
        <path class="cls-2" d="m314.46,27.85c-1.42,0-2.75-.11-3.98-.34s-2.38-.57-3.44-1.03l.46-3.55c1.29.55,2.53.97,3.74,1.26s2.37.43,3.51.43c1.64,0,2.86-.29,3.66-.86s1.2-1.45,1.2-2.62c0-1.49-.76-2.58-2.29-3.27l-4.32-1.97c-1.7-.77-3-1.71-3.91-2.79s-1.36-2.44-1.36-4.06c0-2.18.66-3.87,1.97-5.06s3.17-1.79,5.57-1.79c1.68,0,3.16.25,4.45.74s2.53,1.29,3.73,2.41l-2.46,2.5c-1.03-.84-2-1.46-2.89-1.84s-1.83-.57-2.8-.57c-1.21,0-2.14.29-2.8.87s-.99,1.44-.99,2.58c0,.81.22,1.47.65,1.98s1.07.96,1.92,1.36l3.66,1.72c1.85.87,3.26,1.85,4.22,2.94s1.44,2.49,1.44,4.2c0,2.26-.74,3.96-2.21,5.09s-3.7,1.7-6.69,1.7Z"/>
        <path class="cls-2" d="m335.55,27.85c-1.42,0-2.75-.11-3.98-.34s-2.38-.57-3.44-1.03l.46-3.55c1.29.55,2.53.97,3.74,1.26s2.37.43,3.51.43c1.64,0,2.86-.29,3.66-.86s1.2-1.45,1.2-2.62c0-1.49-.76-2.58-2.29-3.27l-4.32-1.97c-1.7-.77-3-1.71-3.91-2.79s-1.36-2.44-1.36-4.06c0-2.18.66-3.87,1.97-5.06s3.17-1.79,5.57-1.79c1.68,0,3.16.25,4.45.74s2.53,1.29,3.73,2.41l-2.46,2.5c-1.03-.84-2-1.46-2.89-1.84s-1.83-.57-2.8-.57c-1.21,0-2.14.29-2.8.87s-.99,1.44-.99,2.58c0,.81.22,1.47.65,1.98s1.07.96,1.92,1.36l3.66,1.72c1.85.87,3.26,1.85,4.22,2.94s1.44,2.49,1.44,4.2c0,2.26-.74,3.96-2.21,5.09s-3.7,1.7-6.69,1.7Z"/>
        <path class="cls-2" d="m347.75,27.5l7.21-24.96h5.1l7.21,24.96h-3.69l-5.91-21.94h-.32l-5.91,21.94h-3.69Zm3.34-6.08v-3.34h12.66v3.34h-12.66Z"/>
        <path class="cls-2" d="m52.44,70.7l7.21-24.96h5.1l7.21,24.96h-3.69l-5.91-21.94h-.32l-5.91,21.94h-3.69Zm3.34-6.08v-3.34h12.66v3.34h-12.66Z"/>
        <path class="cls-2" d="m74.15,49.08v-3.34h18.28v3.34h-18.28Zm7.38,21.62v-24.96h3.52v24.96h-3.52Z"/>
        <path class="cls-2" d="m96.65,70.7v-24.96h3.52v24.96h-3.52Zm0-21.62v-3.34h16.52v3.34h-16.52Zm0,10.79v-3.34h13.36v3.34h-13.36Zm0,10.83v-3.34h16.52v3.34h-16.52Z"/>
        <path class="cls-2" d="m117.39,70.7v-24.96h3.52v24.96h-3.52Zm3.27-9.49v-3.34h5.31c1.39,0,2.48-.37,3.26-1.11s1.17-1.78,1.17-3.11c0-1.46-.39-2.59-1.17-3.38s-1.87-1.19-3.26-1.19h-5.24l-.42-3.34h5.66c2.59,0,4.59.66,6,1.97s2.12,3.18,2.12,5.59-.71,4.45-2.12,5.84-3.41,2.07-6,2.07h-5.31Zm10.12,9.49l-5.59-11.74h3.87l5.94,11.74h-4.22Z"/>
        <path class="cls-2" d="m138.63,70.7v-24.96h3.38v24.96h-3.38Zm11.46,0l-7.73-18.98h-1.62v-5.98h2.32l7.73,18.98h.88v5.98h-1.58Zm1.05,0v-24.96h3.38v24.96h-3.38Z"/>
        <path class="cls-2" d="m160.07,49.08v-3.34h15.19v3.34h-15.19Zm0,21.62v-3.34h15.19v3.34h-15.19Zm5.82,0v-24.96h3.52v24.96h-3.52Z"/>
        <path class="cls-2" d="m179.62,49.08v-3.34h18.28v3.34h-18.28Zm7.38,21.62v-24.96h3.52v24.96h-3.52Z"/>
        <path class="cls-2" d="m208.36,62.37l-8.61-16.63h3.87l6.08,12.48h.32l6.08-12.48h3.87l-8.61,16.63h-2.99Zm-.26,8.33v-12.3h3.52v12.3h-3.52Z"/>
        <path class="cls-2" d="m243.96,70.7v-24.96h3.52v24.96h-3.52Zm.74-10.76v-3.34h14.78v3.34h-14.78Zm11.92,10.76v-24.96h3.52v24.96h-3.52Z"/>
        <path class="cls-2" d="m273.13,71.06c-6.14,0-9.21-4.22-9.21-12.66s3.07-13.01,9.21-13.01,9.21,4.34,9.21,13.01-3.07,12.66-9.21,12.66Zm0-3.23c3.68,0,5.52-3.14,5.52-9.42s-1.84-9.77-5.52-9.77-5.52,3.26-5.52,9.77,1.84,9.42,5.52,9.42Z"/>
        <path class="cls-2" d="m293.37,71.06c-1.42,0-2.75-.11-3.98-.34s-2.38-.57-3.44-1.03l.46-3.55c1.29.55,2.53.97,3.74,1.26s2.37.43,3.51.43c1.64,0,2.86-.29,3.66-.86s1.2-1.45,1.2-2.62c0-1.49-.76-2.58-2.29-3.27l-4.32-1.97c-1.7-.77-3-1.71-3.91-2.79s-1.36-2.44-1.36-4.06c0-2.18.66-3.87,1.97-5.06s3.17-1.79,5.57-1.79c1.68,0,3.16.25,4.45.74s2.53,1.29,3.73,2.41l-2.46,2.5c-1.03-.84-2-1.46-2.89-1.84s-1.83-.57-2.8-.57c-1.21,0-2.14.29-2.8.87s-.99,1.44-.99,2.58c0,.81.22,1.47.65,1.98s1.07.96,1.92,1.36l3.66,1.72c1.85.87,3.26,1.85,4.22,2.94s1.44,2.49,1.44,4.2c0,2.26-.74,3.96-2.21,5.09s-3.7,1.7-6.69,1.7Z"/>
        <path class="cls-2" d="m307.59,70.7v-24.96h3.52v24.96h-3.52Zm3.09-7.73v-3.34h4.25c1.92,0,3.38-.48,4.36-1.43s1.48-2.35,1.48-4.19c0-1.62-.49-2.84-1.48-3.67s-2.44-1.25-4.36-1.25h-4.18v-3.34h4.18c3.13,0,5.5.7,7.11,2.09s2.42,3.45,2.42,6.17c0,2.94-.81,5.17-2.42,6.69s-3.98,2.28-7.11,2.28h-4.25Z"/>
        <path class="cls-2" d="m328.82,49.08v-3.34h15.19v3.34h-15.19Zm0,21.62v-3.34h15.19v3.34h-15.19Zm5.82,0v-24.96h3.52v24.96h-3.52Z"/>
        <path class="cls-2" d="m348.37,49.08v-3.34h18.28v3.34h-18.28Zm7.38,21.62v-24.96h3.52v24.96h-3.52Z"/>
        <path class="cls-2" d="m368.85,70.7l7.21-24.96h5.1l7.21,24.96h-3.69l-5.91-21.94h-.32l-5.91,21.94h-3.69Zm3.34-6.08v-3.34h12.66v3.34h-12.66Z"/>
        <path class="cls-2" d="m391.96,70.7v-24.96h3.52v24.96h-3.52Zm0,0v-3.34h16.52v3.34h-16.52Z"/>
      </g>
      <path class="cls-1" d="m0,70.7V0h9.56v70.7H0Zm18.92-28.88L10.85,12.55h-2.89V0h7.07l8.07,30.37h.4l1,11.45h-5.58Zm2.89,0l1.49-11.45h.6L31.97,0h7.07v12.55h-2.89l-8.07,29.28h-6.27Zm15.63,28.88V0h9.56v70.7h-9.56Z"/>
    </g>
  </g>
</svg>